G04 Layer_Color=32896*
%FSAX24Y24*%
%MOIN*%
G70*
G01*
G75*
%ADD15C,0.0050*%
%ADD17C,0.0060*%
D15*
X040890Y029200D02*
X040640D01*
X040723Y029283D01*
X040640Y029367D01*
X040890D01*
X040848Y029617D02*
X040890Y029575D01*
Y029492D01*
X040848Y029450D01*
X040807D01*
X040765Y029492D01*
Y029575D01*
X040723Y029617D01*
X040682D01*
X040640Y029575D01*
Y029492D01*
X040682Y029450D01*
X040640Y029866D02*
Y029700D01*
X040807Y029866D01*
X040848D01*
X040890Y029825D01*
Y029741D01*
X040848Y029700D01*
Y029950D02*
X040890Y029991D01*
Y030075D01*
X040848Y030116D01*
X040807D01*
X040765Y030075D01*
X040723Y030116D01*
X040682D01*
X040640Y030075D01*
Y029991D01*
X040682Y029950D01*
X040723D01*
X040765Y029991D01*
X040807Y029950D01*
X040848D01*
X040765Y029991D02*
Y030075D01*
X040640Y030200D02*
Y030283D01*
Y030241D01*
X040890D01*
X040848Y030200D01*
X040640Y030575D02*
Y030408D01*
X040807Y030575D01*
X040848D01*
X040890Y030533D01*
Y030450D01*
X040848Y030408D01*
X040345Y029408D02*
Y029575D01*
X040220Y029825D02*
Y029658D01*
X040387Y029825D01*
X040428D01*
X040470Y029783D01*
Y029700D01*
X040428Y029658D01*
Y029908D02*
X040470Y029950D01*
Y030033D01*
X040428Y030075D01*
X040262D01*
X040220Y030033D01*
Y029950D01*
X040262Y029908D01*
X040428D01*
X040220Y030325D02*
Y030158D01*
X040387Y030325D01*
X040428D01*
X040470Y030283D01*
Y030200D01*
X040428Y030158D01*
Y030408D02*
X040470Y030450D01*
Y030533D01*
X040428Y030575D01*
X040262D01*
X040220Y030533D01*
Y030450D01*
X040262Y030408D01*
X040428D01*
D17*
X041300Y030350D02*
X041100D01*
X041300Y029980D02*
Y029730D01*
X041175D01*
X041133Y029772D01*
Y029938D01*
X041175Y029980D01*
X041300D01*
Y029350D02*
X041100D01*
X041200Y029450D02*
Y029250D01*
M02*
