G04 Layer_Physical_Order=2*
G04 Layer_Color=16711680*
%FSAX24Y24*%
%MOIN*%
G70*
G01*
G75*
%ADD13C,0.0354*%
%ADD14C,0.0200*%
G36*
X041847Y030565D02*
X041800Y030549D01*
X041797Y030548D01*
X041740Y030592D01*
X041672Y030620D01*
X041650Y030623D01*
Y030350D01*
X041600D01*
Y030300D01*
X041327D01*
X041330Y030278D01*
X041358Y030210D01*
X041402Y030152D01*
X041429Y030132D01*
Y030068D01*
X041402Y030048D01*
X041358Y029990D01*
X041330Y029922D01*
X041320Y029850D01*
X041330Y029778D01*
X041358Y029710D01*
X041402Y029652D01*
X041429Y029632D01*
Y029568D01*
X041402Y029548D01*
X041358Y029490D01*
X041330Y029422D01*
X041320Y029350D01*
X041330Y029278D01*
X041358Y029210D01*
X041402Y029152D01*
X041460Y029108D01*
X041528Y029080D01*
X041600Y029070D01*
X041672Y029080D01*
X041740Y029108D01*
X041797Y029152D01*
X041800Y029151D01*
X041847Y029135D01*
Y028753D01*
X039653D01*
Y029135D01*
X039700Y029151D01*
X039703Y029152D01*
X039760Y029108D01*
X039828Y029080D01*
X039900Y029070D01*
X039972Y029080D01*
X040040Y029108D01*
X040098Y029152D01*
X040142Y029210D01*
X040170Y029278D01*
X040180Y029350D01*
X040170Y029422D01*
X040142Y029490D01*
X040098Y029548D01*
X040071Y029568D01*
Y029632D01*
X040098Y029652D01*
X040142Y029710D01*
X040170Y029778D01*
X040180Y029850D01*
X040170Y029922D01*
X040142Y029990D01*
X040098Y030048D01*
X040071Y030068D01*
Y030132D01*
X040098Y030152D01*
X040142Y030210D01*
X040170Y030278D01*
X040173Y030300D01*
X039900D01*
Y030350D01*
X039850D01*
Y030623D01*
X039828Y030620D01*
X039760Y030592D01*
X039703Y030548D01*
X039700Y030549D01*
X039653Y030565D01*
Y030947D01*
X041847D01*
Y030565D01*
D02*
G37*
%LPC*%
G36*
X041550Y030623D02*
X041528Y030620D01*
X041460Y030592D01*
X041402Y030548D01*
X041358Y030490D01*
X041330Y030422D01*
X041327Y030400D01*
X041550D01*
Y030623D01*
D02*
G37*
G36*
X039950D02*
Y030400D01*
X040173D01*
X040170Y030422D01*
X040142Y030490D01*
X040098Y030548D01*
X040040Y030592D01*
X039972Y030620D01*
X039950Y030623D01*
D02*
G37*
%LPD*%
D13*
X041600Y030350D02*
D03*
Y029850D02*
D03*
Y029350D02*
D03*
X039900Y030350D02*
D03*
Y029850D02*
D03*
Y029350D02*
D03*
D14*
X040250Y029050D02*
D03*
M02*
