G04 Layer_Physical_Order=1*
G04 Layer_Color=255*
%FSAX24Y24*%
%MOIN*%
G70*
G01*
G75*
%ADD10R,0.0197X0.0236*%
%ADD11R,0.0276X0.0276*%
%ADD12C,0.0100*%
%ADD13C,0.0591*%
%ADD14R,0.0591X0.0591*%
%ADD15C,0.0200*%
G36*
X041755Y031747D02*
X041751Y031745D01*
X041668Y031682D01*
X041605Y031599D01*
X041565Y031503D01*
X041551Y031400D01*
X041565Y031297D01*
X041584Y031250D01*
X041103Y030769D01*
X041047D01*
X041042Y030793D01*
X041020Y030826D01*
X040987Y030849D01*
X040948Y030856D01*
X040672D01*
X040633Y030849D01*
X040600Y030826D01*
X040578Y030793D01*
X040570Y030754D01*
Y030479D01*
X040578Y030440D01*
X040579Y030439D01*
X040597Y030400D01*
X040579Y030361D01*
X040578Y030360D01*
X040570Y030321D01*
Y030046D01*
X040578Y030007D01*
X040600Y029974D01*
X040633Y029951D01*
X040672Y029944D01*
X040948D01*
X040987Y029951D01*
X041020Y029974D01*
X041042Y030007D01*
X041047Y030031D01*
X041733D01*
X041785Y030041D01*
X041847Y030015D01*
X041950Y030001D01*
X042053Y030015D01*
X042100Y030034D01*
X042150Y030001D01*
Y029797D01*
X042000D01*
Y029400D01*
X041950D01*
Y029350D01*
X041553D01*
Y029105D01*
X041561Y029066D01*
X041569Y029053D01*
X041544Y029003D01*
X039356D01*
X039331Y029053D01*
X039339Y029066D01*
X039347Y029105D01*
Y029350D01*
X038950D01*
Y029400D01*
X038900D01*
Y029797D01*
X038750D01*
Y030001D01*
X038800Y030034D01*
X038847Y030015D01*
X038950Y030001D01*
X039053Y030015D01*
X039149Y030055D01*
X039232Y030118D01*
X039295Y030201D01*
X039335Y030297D01*
X039349Y030400D01*
X039345Y030426D01*
X039378Y030464D01*
X039853D01*
X039858Y030440D01*
X039858Y030439D01*
X039877Y030400D01*
X039858Y030361D01*
X039858Y030360D01*
X039850Y030321D01*
Y030233D01*
X040090D01*
X040330D01*
Y030321D01*
X040322Y030360D01*
X040321Y030361D01*
X040303Y030400D01*
X040321Y030439D01*
X040322Y030440D01*
X040330Y030479D01*
Y030754D01*
X040322Y030793D01*
X040300Y030826D01*
X040267Y030849D01*
X040228Y030856D01*
X039952D01*
X039913Y030849D01*
X039880Y030826D01*
X039858Y030793D01*
X039853Y030769D01*
X039167D01*
X039115Y030759D01*
X039053Y030785D01*
X038950Y030799D01*
X038847Y030785D01*
X038800Y030766D01*
X038750Y030799D01*
Y031001D01*
X038800Y031034D01*
X038847Y031015D01*
X038950Y031001D01*
X039053Y031015D01*
X039149Y031055D01*
X039232Y031118D01*
X039295Y031201D01*
X039335Y031297D01*
X039349Y031400D01*
X039335Y031503D01*
X039295Y031599D01*
X039232Y031682D01*
X039149Y031745D01*
X039145Y031747D01*
X039155Y031797D01*
X041745D01*
X041755Y031747D01*
D02*
G37*
%LPC*%
G36*
X039245Y029797D02*
X039000D01*
Y029450D01*
X039347D01*
Y029695D01*
X039339Y029734D01*
X039317Y029767D01*
X039284Y029789D01*
X039245Y029797D01*
D02*
G37*
G36*
X041900D02*
X041655D01*
X041616Y029789D01*
X041583Y029767D01*
X041561Y029734D01*
X041553Y029695D01*
Y029450D01*
X041900D01*
Y029797D01*
D02*
G37*
G36*
X040053Y029550D02*
X039903D01*
Y029482D01*
X039911Y029443D01*
X039933Y029410D01*
X039966Y029388D01*
X040005Y029380D01*
X040053D01*
Y029550D01*
D02*
G37*
G36*
Y029820D02*
X040005D01*
X039966Y029812D01*
X039933Y029790D01*
X039911Y029757D01*
X039903Y029718D01*
Y029650D01*
X040053D01*
Y029820D01*
D02*
G37*
G36*
X040330Y030133D02*
X040140D01*
Y029944D01*
X040228D01*
X040267Y029951D01*
X040300Y029974D01*
X040322Y030007D01*
X040330Y030046D01*
Y030133D01*
D02*
G37*
G36*
X040040D02*
X039850D01*
Y030046D01*
X039858Y030007D01*
X039880Y029974D01*
X039913Y029951D01*
X039952Y029944D01*
X040040D01*
Y030133D01*
D02*
G37*
G36*
X040595Y029820D02*
X040398D01*
X040359Y029812D01*
X040326Y029790D01*
X040274D01*
X040241Y029812D01*
X040202Y029820D01*
X040153D01*
Y029600D01*
Y029380D01*
X040202D01*
X040241Y029388D01*
X040274Y029410D01*
X040326D01*
X040359Y029388D01*
X040398Y029380D01*
X040595D01*
X040634Y029388D01*
X040667Y029410D01*
X040689Y029443D01*
X040690Y029447D01*
X040769D01*
X040822Y029412D01*
X040900Y029396D01*
X040978Y029412D01*
X041044Y029456D01*
X041088Y029522D01*
X041104Y029600D01*
X041088Y029678D01*
X041044Y029744D01*
X040978Y029788D01*
X040900Y029804D01*
X040822Y029788D01*
X040769Y029753D01*
X040690D01*
X040689Y029757D01*
X040667Y029790D01*
X040634Y029812D01*
X040595Y029820D01*
D02*
G37*
%LPD*%
D10*
X040497Y029600D02*
D03*
X040103D02*
D03*
D11*
X040090Y030617D02*
D03*
X040810Y030183D02*
D03*
X040090D02*
D03*
X040810Y030617D02*
D03*
D12*
X040497Y029600D02*
X040900D01*
X040810Y030617D02*
X041167D01*
X041950Y031400D01*
X041733Y030183D02*
X041950Y030400D01*
X040810Y030183D02*
X041733D01*
X038950Y030400D02*
X039167Y030617D01*
X040090D01*
Y029613D02*
Y030183D01*
D13*
X041950Y031400D02*
D03*
Y030400D02*
D03*
X038950Y031400D02*
D03*
Y030400D02*
D03*
D14*
X041950Y029400D02*
D03*
X038950D02*
D03*
D15*
X040900Y029600D02*
D03*
M02*
