G04 Layer_Color=65535*
%FSAX24Y24*%
%MOIN*%
G70*
G01*
G75*
%ADD16C,0.0030*%
%ADD17C,0.0050*%
%ADD18C,0.0080*%
%ADD19C,0.0060*%
G36*
X040580Y030006D02*
X040450D01*
Y030794D01*
X040580D01*
Y030006D01*
D02*
G37*
D16*
X040025Y029947D02*
X040875D01*
X040025Y030853D02*
X040875D01*
D17*
Y029908D02*
Y029935D01*
D18*
X041200Y030150D02*
Y030050D01*
X041250Y030000D01*
X041450D01*
X041500Y030050D01*
Y030150D01*
X041450Y030200D01*
X041250D01*
X041200Y030150D01*
Y030300D02*
X041450D01*
X041500Y030350D01*
Y030450D01*
X041450Y030500D01*
X041200D01*
Y030600D02*
Y030800D01*
Y030700D01*
X041500D01*
X039700Y030650D02*
Y030550D01*
Y030600D01*
X039400D01*
Y030650D01*
Y030550D01*
Y030400D02*
X039700D01*
X039400Y030200D01*
X039700D01*
D19*
X040300Y029250D02*
X040250Y029300D01*
X040150D01*
X040100Y029250D01*
Y029050D01*
X040150Y029000D01*
X040250D01*
X040300Y029050D01*
X040400Y029000D02*
X040500D01*
X040450D01*
Y029300D01*
X040400Y029250D01*
X040250Y031300D02*
Y031000D01*
X040400D01*
X040450Y031050D01*
Y031250D01*
X040400Y031300D01*
X040250D01*
X040550Y031000D02*
X040650D01*
X040600D01*
Y031300D01*
X040550Y031250D01*
M02*
