G04 Layer_Physical_Order=1*
G04 Layer_Color=255*
%FSAX24Y24*%
%MOIN*%
G70*
G01*
G75*
%ADD10R,0.0276X0.0276*%
%ADD11R,0.0197X0.0236*%
%ADD12C,0.0100*%
%ADD13C,0.0354*%
%ADD14C,0.0200*%
G36*
X040301Y030033D02*
X040324Y030000D01*
X040357Y029978D01*
X040396Y029970D01*
X040671D01*
X040710Y029978D01*
X040711Y029979D01*
X040750Y029997D01*
X040789Y029979D01*
X040790Y029978D01*
X040829Y029970D01*
X040990D01*
X041219Y029742D01*
X041268Y029709D01*
X041327Y029697D01*
X041368D01*
X041402Y029652D01*
X041429Y029632D01*
Y029568D01*
X041402Y029548D01*
X041358Y029490D01*
X041330Y029422D01*
X041327Y029400D01*
X041600D01*
Y029350D01*
X041650D01*
Y029077D01*
X041672Y029080D01*
X041740Y029108D01*
X041797Y029152D01*
X041800Y029151D01*
X041847Y029135D01*
Y028753D01*
X039653D01*
Y029135D01*
X039700Y029151D01*
X039703Y029152D01*
X039760Y029108D01*
X039828Y029080D01*
X039850Y029077D01*
Y029350D01*
X039950D01*
Y029077D01*
X039972Y029080D01*
X040004Y029093D01*
X040047Y029057D01*
X040046Y029050D01*
X040062Y028972D01*
X040106Y028906D01*
X040172Y028862D01*
X040250Y028846D01*
X040328Y028862D01*
X040361Y028884D01*
X040411Y028893D01*
X040433Y028860D01*
X040466Y028838D01*
X040505Y028830D01*
X040702D01*
X040741Y028838D01*
X040774Y028860D01*
X040826D01*
X040859Y028838D01*
X040898Y028830D01*
X040947D01*
Y029050D01*
X040997D01*
Y029100D01*
X041197D01*
Y029168D01*
X041189Y029207D01*
X041167Y029240D01*
X041176Y029280D01*
X041199Y029313D01*
X041206Y029352D01*
Y029440D01*
X040967D01*
Y029490D01*
X040917D01*
Y029730D01*
X040829D01*
X040790Y029722D01*
X040789Y029721D01*
X040750Y029703D01*
X040711Y029721D01*
X040710Y029722D01*
X040671Y029730D01*
X040510D01*
X040281Y029958D01*
X040232Y029991D01*
X040181Y030001D01*
X040177Y030007D01*
X040194Y030049D01*
X040204Y030057D01*
X040297D01*
X040301Y030033D01*
D02*
G37*
%LPC*%
G36*
X041197Y029000D02*
X041047D01*
Y028830D01*
X041095D01*
X041134Y028838D01*
X041167Y028860D01*
X041189Y028893D01*
X041197Y028932D01*
Y029000D01*
D02*
G37*
G36*
X041104Y029730D02*
X041017D01*
Y029540D01*
X041206D01*
Y029628D01*
X041199Y029667D01*
X041176Y029700D01*
X041143Y029722D01*
X041104Y029730D01*
D02*
G37*
G36*
X041550Y029300D02*
X041327D01*
X041330Y029278D01*
X041358Y029210D01*
X041402Y029152D01*
X041460Y029108D01*
X041528Y029080D01*
X041550Y029077D01*
Y029300D01*
D02*
G37*
%LPD*%
D10*
X040533Y030210D02*
D03*
X040967D02*
D03*
X040533Y029490D02*
D03*
X040967D02*
D03*
D11*
X040603Y029050D02*
D03*
X040997D02*
D03*
D12*
X040967Y029080D02*
X040997Y029050D01*
X040967Y029080D02*
Y029490D01*
X040250Y029050D02*
X040603D01*
X040173Y029850D02*
X040533Y029490D01*
X039900Y029850D02*
X040173D01*
X039900Y030350D02*
X040040Y030210D01*
X040533D01*
X041327Y029850D02*
X041600D01*
X040967Y030210D02*
X041327Y029850D01*
D13*
X041600Y030350D02*
D03*
Y029850D02*
D03*
Y029350D02*
D03*
X039900Y030350D02*
D03*
Y029850D02*
D03*
Y029350D02*
D03*
D14*
X040250Y029050D02*
D03*
M02*
